<svg width="512" height="512" viewBox="0 0 512 512" fill="none" xmlns="http://www.w3.org/2000/svg"><rect width="512" height="512" rx="48" fill="#111111"/><path d="M129 151C190 113 283 131 344 190C392 237 405 296 361 343C309 399 204 386 151 319C111 269 92 194 129 151Z" stroke="#C85A0E" stroke-width="34"/><path d="M153 183C202 157 276 171 323 217" stroke="#F4D12D" stroke-width="24" stroke-linecap="round"/><path d="M173 312C215 354 289 361 329 320" stroke="#19A86B" stroke-width="24" stroke-linecap="round"/><circle cx="128" cy="151" r="28" fill="#C85A0E"/><circle cx="128" cy="151" r="12" fill="#111111"/><circle cx="357" cy="344" r="28" fill="#C85A0E"/><circle cx="357" cy="344" r="12" fill="#111111"/><text x="256" y="454" text-anchor="middle" fill="white" font-family="Arial" font-size="26" font-weight="700">GUIA PREMIUM</text></svg>